if (_typeface_js && _typeface_js.loadFace) _typeface_js.loadFace({"glyphs":{"S":{"x_min":22.6875,"x_max":736.703125,"ha":806,"o":"m 22 176 l 176 293 q 268 214 208 242 q 384 185 327 186 q 485 211 441 184 q 532 287 529 237 q 486 367 534 343 q 342 404 437 391 q 35 716 32 453 q 146 923 42 849 q 390 998 249 998 q 720 824 605 998 l 554 712 q 390 805 492 805 q 285 780 327 805 q 239 708 242 756 l 239 706 q 265 649 239 672 q 313 620 292 627 q 393 602 334 614 l 409 598 q 535 565 483 584 q 638 510 588 546 q 714 414 689 475 q 736 270 740 354 q 615 62 723 138 q 363 -14 506 -14 q 174 34 265 -14 q 22 176 83 83 "},"/":{"x_min":-46.125,"x_max":559.53125,"ha":528,"o":"m -46 -8 l 377 1058 l 559 994 l 139 -75 l -46 -8 "},"K":{"x_min":61,"x_max":864.015625,"ha":858,"o":"m 61 0 l 61 983 l 265 983 l 265 573 l 615 983 l 864 983 l 441 500 l 864 0 l 611 0 l 304 365 l 265 327 l 265 0 l 61 0 "},"7":{"x_min":-23.734375,"x_max":672.125,"ha":684,"o":"m -23 791 l -23 984 l 615 984 l 672 872 l 201 0 l -19 0 l 402 791 l -23 791 "},"d":{"x_min":31.953125,"x_max":609.296875,"ha":701,"o":"m 32 231 l 32 480 q 68 609 30 552 q 164 692 107 666 q 290 724 222 718 q 313 726 301 726 q 416 701 367 726 l 416 982 l 609 982 l 609 36 q 330 -17 468 -17 q 123 41 205 -17 q 32 231 41 100 m 225 214 q 261 149 226 173 q 333 125 293 125 q 338 125 335 125 q 416 141 380 126 l 416 558 q 342 577 384 576 q 339 577 340 577 q 264 556 299 577 q 225 494 229 534 l 225 214 "},",":{"x_min":-8,"x_max":315.515625,"ha":391,"o":"m -8 -170 l 98 153 l 315 153 l 187 -170 l -8 -170 "},"Y":{"x_min":-63.828125,"x_max":825.3125,"ha":805,"o":"m -63 983 l 170 983 l 379 571 l 587 983 l 825 983 l 482 375 l 482 0 l 278 0 l 278 375 l -63 983 "},"E":{"x_min":56,"x_max":721.140625,"ha":794,"o":"m 56 0 l 56 984 l 721 984 l 721 785 l 260 785 l 260 591 l 683 591 l 683 392 l 260 392 l 260 198 l 721 198 l 721 0 l 56 0 "},"y":{"x_min":36,"x_max":613.296875,"ha":707,"o":"m 36 223 l 36 720 l 229 720 l 229 220 q 268 158 233 180 q 343 137 303 137 q 346 137 344 137 q 420 156 388 138 l 420 720 l 613 720 l 613 26 q 572 -128 613 -61 q 467 -224 531 -194 q 330 -259 403 -254 q 307 -260 318 -260 q 184 -238 244 -260 q 63 -159 112 -210 l 162 -59 q 262 -109 200 -98 q 292 -111 277 -112 q 373 -88 335 -111 q 422 8 423 -57 q 315 -11 370 -11 q 290 -9 303 -11 q 165 20 221 -4 q 72 98 108 44 q 36 223 36 151 "},"\"":{"x_min":36,"x_max":473.296875,"ha":527,"o":"m 36 606 l 36 982 l 229 982 l 205 606 l 36 606 m 280 606 l 280 982 l 473 982 l 450 606 l 280 606 "},"g":{"x_min":26,"x_max":603.296875,"ha":701,"o":"m 26 223 l 26 494 q 88 658 26 597 q 241 730 150 718 q 324 737 282 736 q 429 728 376 737 q 603 675 526 712 l 603 26 q 562 -128 603 -61 q 457 -224 521 -195 q 321 -259 393 -254 q 297 -260 308 -260 q 174 -238 234 -260 q 53 -160 102 -211 l 152 -57 q 252 -108 190 -97 q 284 -111 268 -111 q 362 -89 327 -111 q 412 8 412 -58 q 304 -11 359 -11 q 279 -9 292 -11 q 154 20 210 -4 q 62 98 98 44 q 26 223 26 151 m 219 220 q 259 158 223 180 q 333 137 293 137 q 335 137 335 137 q 410 156 377 138 l 410 574 q 332 588 374 588 q 255 563 290 588 q 219 496 220 538 l 219 220 "},"e":{"x_min":25,"x_max":609.296875,"ha":686,"o":"m 25 241 l 25 476 q 110 664 25 598 q 314 731 196 731 q 521 665 434 731 q 609 475 609 599 l 609 275 l 218 275 l 218 241 q 263 174 218 195 q 326 159 293 159 q 363 163 343 159 q 441 212 417 174 l 575 124 q 462 19 535 52 q 314 -14 390 -14 q 110 53 196 -14 q 25 241 25 120 m 218 419 l 416 419 l 416 483 q 366 548 416 529 q 316 557 341 557 q 266 547 291 557 q 218 481 216 527 l 218 419 "},"J":{"x_min":-9.796875,"x_max":730.140625,"ha":847,"o":"m -9 311 l 186 350 q 250 228 200 272 q 362 184 300 184 q 476 217 427 184 q 526 307 526 250 l 526 789 l 295 789 l 295 983 l 730 983 l 730 308 q 619 71 730 156 q 357 -14 508 -14 q 116 70 222 -14 q -9 311 9 155 "},"|":{"x_min":49,"x_max":242.296875,"ha":340,"o":"m 49 -203 l 49 988 l 242 988 l 242 -203 l 49 -203 "},"^":{"x_min":-6.78125,"x_max":769.78125,"ha":823,"o":"m -6 547 l 318 962 l 436 962 l 769 547 l 537 547 l 375 747 l 216 547 l -6 547 "},"q":{"x_min":27.953125,"x_max":605.296875,"ha":704,"o":"m 28 237 l 28 486 q 119 676 37 617 q 326 735 201 735 q 605 681 464 735 l 605 -263 l 412 -263 l 412 17 q 309 -8 363 -7 q 286 -6 297 -8 q 160 25 218 0 q 64 108 103 51 q 28 237 26 165 m 221 226 q 260 163 225 187 q 334 140 295 140 q 336 140 335 140 q 412 156 377 141 l 412 576 q 334 591 376 589 q 329 591 332 591 q 257 568 289 591 q 221 503 222 544 l 221 226 "},"b":{"x_min":37,"x_max":616.34375,"ha":701,"o":"m 37 36 l 37 982 l 230 982 l 230 701 q 334 726 278 725 q 356 724 346 726 q 483 692 425 718 q 579 609 541 666 q 616 480 617 552 l 616 231 q 524 41 606 100 q 316 -17 442 -17 q 37 36 178 -17 m 230 141 q 309 125 266 127 q 313 125 311 125 q 386 149 353 125 q 423 214 420 173 l 423 494 q 382 556 418 534 q 307 577 348 577 q 305 577 305 577 q 230 558 262 576 l 230 141 "},"D":{"x_min":58,"x_max":793.140625,"ha":876,"o":"m 58 0 l 58 983 l 418 983 q 684 901 576 983 q 793 663 793 820 l 793 313 q 685 78 793 158 q 418 0 578 0 l 58 0 m 262 205 l 419 205 q 541 231 493 205 q 589 313 589 257 l 589 663 q 540 749 589 720 q 419 777 491 777 l 262 777 l 262 205 "},"z":{"x_min":-15.59375,"x_max":548.6875,"ha":595,"o":"m -15 72 l 283 546 l 10 546 l 10 720 l 493 720 l 548 648 l 248 173 l 539 173 l 539 0 l 40 0 l -15 72 "},"":{"x_min":0,"x_max":718.921875,"ha":719,"o":"m 0 718 l 718 718 l 718 0 l 0 0 l 0 718 "},"w":{"x_min":-31.875,"x_max":921.375,"ha":929,"o":"m -31 720 l 158 720 l 236 415 l 261 241 l 269 241 l 284 416 l 376 720 l 516 720 l 604 417 l 619 241 l 628 241 l 654 416 l 728 720 l 921 720 l 704 0 l 528 0 l 469 259 l 450 455 l 438 455 l 422 259 l 365 0 l 191 0 l -31 720 "},"$":{"x_min":15.6875,"x_max":730.140625,"ha":783,"o":"m 15 174 l 169 292 q 311 194 215 220 l 311 408 q 28 716 25 463 q 114 902 34 830 q 311 994 194 975 l 311 1078 l 442 1078 l 442 995 q 714 826 617 971 l 547 714 q 442 797 505 776 l 442 589 q 657 488 579 559 q 730 291 730 423 q 729 271 730 281 q 639 87 720 160 q 442 -5 558 15 l 442 -97 l 311 -97 l 311 -11 q 147 46 225 -1 q 15 174 69 93 m 232 706 q 311 617 232 644 l 311 794 q 232 708 236 770 l 232 706 m 442 193 q 526 292 525 218 q 442 381 526 353 l 442 193 "},"™":{"x_min":-7,"x_max":1041.84375,"ha":1142,"o":"m -7 798 l -7 985 l 452 985 l 452 798 l 318 798 l 318 413 l 125 413 l 125 798 l -7 798 m 486 415 l 486 985 l 644 985 l 764 751 l 889 985 l 1041 985 l 1041 415 l 875 415 l 879 641 l 800 484 l 732 484 l 652 649 l 659 415 l 486 415 "},"\\":{"x_min":-84.78125,"x_max":523.59375,"ha":522,"o":"m -84 992 l 99 1058 l 523 -16 l 339 -79 l -84 992 "},"~":{"x_min":15.59375,"x_max":597.515625,"ha":647,"o":"m 15 411 q 209 545 108 545 q 359 483 276 545 q 411 464 387 464 q 425 466 419 464 q 487 517 454 473 l 597 426 q 394 277 514 277 q 262 332 325 277 q 209 358 236 358 q 202 357 205 358 q 136 308 170 353 l 15 411 "},"-":{"x_min":24,"x_max":433.640625,"ha":488,"o":"m 24 309 l 24 502 l 433 502 l 433 309 l 24 309 "},"Q":{"x_min":40,"x_max":863.09375,"ha":939,"o":"m 40 306 l 40 675 q 100 857 40 780 q 250 969 160 934 q 439 1003 338 1003 q 443 1003 441 1003 q 637 968 548 1002 q 786 857 726 934 q 846 676 846 780 l 846 307 q 797 142 846 214 l 863 72 l 743 -42 l 672 31 q 474 -19 585 -14 q 445 -20 460 -20 q 267 7 351 -20 q 105 117 171 38 q 40 306 40 197 m 244 307 q 290 225 244 257 q 398 186 336 192 q 436 185 417 184 l 522 194 l 447 275 l 575 379 l 642 308 l 642 674 q 601 755 642 723 q 501 795 560 787 q 446 798 474 798 q 384 794 416 798 q 285 754 326 787 q 244 674 244 721 l 244 307 "},"M":{"x_min":61,"x_max":969.140625,"ha":1087,"o":"m 61 0 l 61 983 l 275 983 l 514 417 l 755 983 l 969 983 l 969 0 l 765 0 l 765 391 l 790 581 l 775 581 l 727 443 l 592 128 l 440 128 l 304 445 l 257 580 l 242 580 l 265 389 l 265 0 l 61 0 "},"C":{"x_min":20,"x_max":757.234375,"ha":811,"o":"m 20 316 l 20 666 q 135 905 20 818 q 407 992 250 992 q 607 938 513 992 q 749 781 701 884 l 584 692 q 492 776 554 749 q 392 799 441 799 q 372 798 382 799 q 268 757 312 793 q 224 665 224 721 l 224 314 q 295 205 224 241 q 388 183 339 182 q 454 192 420 183 q 580 291 542 215 l 757 192 q 600 42 696 94 q 403 -10 504 -10 q 219 25 304 -10 q 77 136 134 60 q 20 316 20 211 "},"[":{"x_min":37,"x_max":338.8125,"ha":372,"o":"m 37 -151 l 37 990 l 338 990 l 338 802 l 230 802 l 230 36 l 338 36 l 338 -151 l 37 -151 "},"L":{"x_min":56,"x_max":685.140625,"ha":720,"o":"m 56 0 l 56 983 l 260 983 l 260 205 l 685 205 l 685 0 l 56 0 "},"!":{"x_min":57,"x_max":295.734375,"ha":402,"o":"m 90 18 q 57 103 57 53 q 90 189 57 153 q 173 224 124 224 q 260 189 225 224 q 295 103 295 153 q 260 18 295 53 q 173 -16 225 -16 q 90 18 124 -16 m 78 264 l 78 985 l 271 985 l 271 264 l 78 264 "}," ":{"x_min":0,"x_max":0,"ha":328},"{":{"x_min":17,"x_max":378.296875,"ha":404,"o":"m 17 328 l 17 512 q 97 621 97 512 l 97 785 q 139 938 97 885 q 286 991 182 991 l 378 991 l 378 803 l 290 803 l 290 778 l 290 597 q 263 490 290 542 q 195 419 235 438 q 290 243 290 379 l 290 58 q 284 37 290 39 l 378 37 l 378 -150 l 274 -150 q 135 -98 174 -150 q 97 55 97 -46 l 97 220 q 17 328 97 328 "},"X":{"x_min":-48.828125,"x_max":832.171875,"ha":826,"o":"m -48 0 l 241 489 l -46 983 l 202 983 l 384 633 l 583 983 l 832 983 l 520 488 l 832 0 l 581 0 l 384 346 l 202 0 l -48 0 "},"P":{"x_min":60,"x_max":793.296875,"ha":855,"o":"m 60 0 l 60 983 l 445 983 q 584 959 521 983 q 687 896 646 935 q 756 806 728 858 q 790 698 785 755 q 793 645 793 672 q 789 585 793 615 q 755 478 783 529 q 686 387 727 427 q 584 324 646 347 q 448 301 522 301 l 264 301 l 264 0 l 60 0 m 264 495 l 448 495 q 559 538 518 495 q 600 636 600 582 q 559 733 600 689 q 448 777 519 777 l 264 777 l 264 495 "},"%":{"x_min":18,"x_max":962.46875,"ha":1037,"o":"m 18 747 q 75 927 18 860 q 223 995 133 995 q 376 929 321 995 q 430 744 430 864 q 372 562 430 630 q 223 495 313 495 q 71 559 125 495 q 18 747 18 624 m 56 -10 l 735 1034 l 889 934 l 207 -104 l 56 -10 m 153 746 q 220 638 153 638 q 286 744 286 638 q 220 851 286 852 q 153 746 153 852 m 550 246 q 607 426 550 359 q 755 494 665 494 q 908 428 853 494 q 962 242 962 363 q 904 61 962 129 q 755 -6 845 -6 q 603 58 657 -6 q 550 246 550 123 m 686 244 q 752 137 686 136 q 818 242 818 137 q 752 350 818 350 q 686 244 686 350 "},"#":{"x_min":8.640625,"x_max":953.0625,"ha":988,"o":"m 8 254 l 45 441 l 223 441 q 243 505 231 462 l 54 505 l 94 692 l 298 692 q 370 933 312 734 l 563 933 l 491 692 l 591 692 l 663 933 l 856 933 l 784 692 l 953 692 l 900 505 l 729 505 l 710 441 l 901 441 l 862 254 l 655 254 l 579 -1 l 386 -1 l 461 254 l 362 254 l 286 -1 l 93 -1 l 168 254 l 8 254 m 394 428 l 517 428 l 540 521 l 416 517 l 394 428 "},"_":{"x_min":-16.953125,"x_max":682.296875,"ha":756,"o":"m -16 11 l 682 11 l 682 -182 l -16 -182 l -16 11 "},"+":{"x_min":37,"x_max":745.296875,"ha":837,"o":"m 37 355 l 37 548 l 300 548 l 300 803 l 493 803 l 493 548 l 745 548 l 745 355 l 493 355 l 493 97 l 300 97 l 300 355 l 37 355 "},")":{"x_min":-49.046875,"x_max":321.5,"ha":393,"o":"m -49 1007 l 91 1101 q 321 496 319 857 q 98 -164 323 134 l -46 -65 q 130 483 131 189 q -49 1007 130 777 "},"'":{"x_min":33,"x_max":226.296875,"ha":298,"o":"m 33 606 l 33 982 l 226 982 l 226 606 l 33 606 "},"}":{"x_min":-13,"x_max":341.359375,"ha":390,"o":"m -13 32 l 58 32 q 66 53 66 32 l 66 240 q 89 349 64 300 q 164 420 114 398 q 93 496 122 448 q 66 598 64 545 l 66 781 q 61 806 66 806 l -13 806 l -13 991 l 60 991 q 166 977 125 991 q 227 934 207 964 q 253 872 247 904 q 259 788 259 841 l 259 622 q 341 512 259 512 l 341 327 q 259 217 259 327 l 259 50 q 216 -100 259 -50 q 57 -150 174 -150 l -13 -150 l -13 32 "},"a":{"x_min":20,"x_max":599.296875,"ha":706,"o":"m 51 608 q 201 711 106 682 q 323 731 264 731 q 383 725 353 731 q 534 645 470 709 q 599 482 599 580 l 599 35 q 328 -17 458 -17 q 61 103 140 -17 q 20 232 20 168 q 52 346 20 289 q 295 467 122 467 q 411 445 368 467 q 362 558 411 525 q 287 582 327 582 q 251 578 269 582 q 149 520 188 564 l 51 608 m 215 250 q 213 227 213 239 q 217 195 213 211 q 254 149 224 168 q 325 131 284 131 q 406 140 368 131 l 406 306 q 334 319 375 319 q 319 318 327 319 q 248 297 276 316 q 215 250 220 277 "},"T":{"x_min":-10,"x_max":757.140625,"ha":783,"o":"m -10 779 l -10 984 l 757 984 l 757 779 l 475 779 l 475 0 l 271 0 l 271 779 l -10 779 "},"=":{"x_min":47.46875,"x_max":640.25,"ha":737,"o":"m 47 183 l 47 370 l 640 370 l 640 183 l 47 183 m 47 437 l 47 630 l 640 630 l 640 437 l 47 437 "},"N":{"x_min":60,"x_max":831.140625,"ha":947,"o":"m 60 0 l 60 983 l 260 983 l 572 446 l 641 268 l 656 271 q 627 480 631 414 l 627 983 l 831 983 l 831 0 l 612 0 l 311 516 l 252 649 l 237 646 l 264 479 l 264 0 l 60 0 "},"2":{"x_min":-13.0625,"x_max":673.296875,"ha":748,"o":"m -13 106 l 414 573 q 473 670 458 620 q 480 706 480 689 q 464 757 480 734 q 373 808 431 802 q 353 810 363 810 q 256 782 305 810 q 161 686 197 749 l 5 792 q 155 946 64 891 q 337 997 241 997 q 347 996 342 997 q 522 954 449 992 q 630 855 595 916 q 671 722 665 794 q 673 697 673 709 q 646 573 673 637 q 549 431 613 496 l 292 187 l 295 178 q 435 194 426 192 l 670 195 l 670 1 l 37 1 l -13 106 "},"j":{"x_min":-55.640625,"x_max":252.953125,"ha":332,"o":"m -55 -113 l -55 -254 q 21 -262 -14 -262 q 161 -211 109 -262 q 234 -12 235 -140 l 234 720 l 41 720 l 41 -18 q -39 -113 41 -113 q -55 -113 -47 -113 m 21 883 q 54 966 21 933 q 135 1000 87 1000 q 218 966 184 1000 q 252 883 252 932 q 218 801 252 834 q 136 768 184 768 q 54 801 88 768 q 21 883 21 835 "},"Z":{"x_min":-21.03125,"x_max":755.546875,"ha":776,"o":"m -21 94 l 469 795 l 5 795 l 5 983 l 698 983 l 755 891 l 265 186 l 735 186 l 735 0 l 27 0 l -21 94 "},"u":{"x_min":39,"x_max":616.296875,"ha":709,"o":"m 39 253 l 39 720 l 232 720 l 232 246 q 294 152 235 182 q 362 137 327 136 q 423 147 391 137 l 423 720 l 616 720 l 616 39 q 474 1 547 15 q 340 -11 409 -11 q 321 -10 331 -11 q 180 15 241 -8 q 79 99 119 38 q 39 253 39 160 "},"1":{"x_min":-57.09375,"x_max":357.296875,"ha":451,"o":"m -57 720 l 194 985 l 357 985 l 357 0 l 164 0 l 164 692 l 70 611 l -57 720 "},"k":{"x_min":47,"x_max":675.03125,"ha":663,"o":"m 47 0 l 47 982 l 240 982 l 240 447 l 449 720 l 673 720 l 387 372 l 675 0 l 451 0 l 253 262 l 240 251 l 240 0 l 47 0 "},"€":{"x_min":-26.84375,"x_max":799.90625,"ha":823,"o":"m -26 311 l 0 455 l 62 455 l 62 508 l -26 508 l 0 651 l 62 651 l 62 670 q 177 906 62 821 q 449 992 292 992 q 649 938 554 992 q 791 782 744 884 l 627 695 q 534 777 597 751 q 434 799 483 799 q 413 798 424 799 q 310 758 354 793 q 266 670 266 724 l 266 651 l 529 651 l 502 508 l 266 508 l 266 455 l 529 455 l 503 311 l 266 311 l 266 309 q 338 204 266 239 q 431 183 382 182 q 496 191 463 183 q 623 287 584 214 l 799 192 q 642 42 738 94 q 445 -10 546 -10 q 261 24 346 -10 q 119 133 176 59 q 62 309 62 207 l 62 311 l -26 311 "},"<":{"x_min":40.015625,"x_max":531.734375,"ha":608,"o":"m 40 345 l 40 473 l 531 788 l 531 565 l 258 409 l 531 259 l 531 34 l 40 345 "},"t":{"x_min":36.984375,"x_max":378.484375,"ha":423,"o":"m 37 252 l 37 983 l 230 983 l 230 720 l 356 720 l 356 526 l 230 526 l 230 248 q 269 156 230 185 q 336 136 295 137 q 378 141 356 136 l 378 7 q 260 -12 314 -12 q 133 24 188 -12 q 37 252 35 88 "},"W":{"x_min":-40,"x_max":1218.140625,"ha":1279,"o":"m -40 983 l 164 983 l 304 467 l 335 238 l 347 238 l 381 468 q 446 665 410 564 q 506 846 481 765 l 672 846 l 792 467 l 832 230 l 844 230 l 871 469 l 1014 983 l 1218 983 l 935 0 l 738 0 l 613 378 l 591 496 l 580 496 q 576 476 579 488 q 568 438 573 464 q 558 394 563 411 l 554 377 l 441 0 l 244 0 l -40 983 "},"v":{"x_min":-51.546875,"x_max":642.953125,"ha":648,"o":"m -51 720 l 153 720 l 259 356 l 288 170 l 302 170 l 328 356 l 436 720 l 642 720 l 385 0 l 204 0 l -51 720 "},">":{"x_min":47.46875,"x_max":539.1875,"ha":615,"o":"m 47 34 l 47 259 l 320 409 l 47 565 l 47 788 l 539 473 l 539 345 l 47 34 "},"s":{"x_min":-8.140625,"x_max":510.03125,"ha":551,"o":"m -8 108 l 83 232 q 221 156 147 171 q 315 184 295 141 q 310 242 328 215 q 245 276 293 268 q 107 329 163 289 q 29 418 51 369 q 10 521 6 467 q 42 621 13 576 q 126 696 70 666 q 255 727 183 725 q 484 652 389 730 l 388 520 q 324 557 364 542 q 247 560 284 571 q 206 506 210 549 q 236 458 204 479 q 302 432 269 438 q 510 222 509 380 q 434 47 510 109 q 250 -14 358 -14 q -8 108 83 -14 "},"B":{"x_min":60,"x_max":799.140625,"ha":861,"o":"m 60 0 l 60 984 l 447 984 q 667 908 580 984 q 754 695 754 833 q 731 598 754 647 q 662 521 708 548 q 778 407 748 480 q 799 298 799 355 q 795 249 799 274 q 696 69 780 139 q 455 0 613 0 l 60 0 m 264 198 l 449 198 q 556 233 517 198 q 595 310 595 268 q 556 387 595 351 q 449 423 518 423 l 264 423 l 264 198 m 264 596 l 449 596 q 545 643 515 596 q 561 693 561 668 q 548 738 561 716 q 449 785 522 786 l 264 785 l 264 596 "},"?":{"x_min":-25.125,"x_max":577.140625,"ha":642,"o":"m -25 824 q 252 976 87 975 q 414 937 342 976 q 525 839 487 898 q 573 708 564 779 q 577 665 576 686 q 562 574 577 618 q 482 462 540 510 q 336 401 423 413 l 328 244 l 161 244 l 149 531 q 234 522 187 522 q 354 592 318 522 q 373 661 373 627 q 353 729 373 695 q 238 789 318 788 q 217 787 227 789 q 99 718 143 780 l -25 824 m 143 88 q 174 162 143 132 q 250 191 205 191 q 321 162 296 191 q 347 88 347 132 q 321 15 347 45 q 250 -14 296 -14 q 174 15 205 -14 q 143 88 143 45 "},"H":{"x_min":71,"x_max":842.140625,"ha":952,"o":"m 71 0 l 71 983 l 275 983 l 275 592 l 638 592 l 638 983 l 842 983 l 842 0 l 638 0 l 638 386 l 275 386 l 275 0 l 71 0 "},"c":{"x_min":20,"x_max":589.71875,"ha":627,"o":"m 20 245 l 20 472 q 106 660 20 592 q 309 728 192 728 q 477 681 399 728 q 581 532 555 634 l 416 481 q 371 538 405 519 q 311 554 341 554 q 302 553 306 554 q 240 529 267 550 q 213 473 213 508 l 213 247 q 230 198 213 219 q 274 169 248 176 q 310 165 291 165 q 329 166 320 165 q 383 189 357 169 q 420 242 409 209 l 589 187 q 476 38 555 85 q 309 -8 398 -8 q 106 58 192 -8 q 20 245 20 124 "},"&":{"x_min":20,"x_max":903.328125,"ha":871,"o":"m 20 301 q 172 559 20 453 q 106 738 106 653 q 187 922 106 854 q 380 991 268 991 q 561 924 484 991 q 637 752 637 857 q 490 517 637 606 l 600 391 l 685 492 l 809 373 l 710 258 l 903 20 l 665 20 l 596 106 q 338 -6 491 -6 q 110 78 201 -6 q 20 301 20 162 m 213 301 q 254 208 213 242 q 332 181 287 181 q 353 182 343 181 q 455 241 411 190 l 301 416 q 213 301 213 356 m 299 742 q 351 634 299 696 q 417 686 390 655 q 444 749 444 717 q 424 798 444 780 q 375 817 405 817 q 321 796 343 817 q 299 742 299 774 "},"I":{"x_min":43,"x_max":247.140625,"ha":364,"o":"m 43 0 l 43 983 l 247 983 l 247 0 l 43 0 "},"G":{"x_min":28,"x_max":802.140625,"ha":909,"o":"m 28 316 l 28 673 q 142 911 28 825 q 412 996 256 996 q 615 946 522 996 q 760 786 707 895 l 591 699 q 470 800 558 776 q 405 809 437 809 q 307 786 354 809 q 232 671 232 749 l 232 317 q 288 220 232 255 q 415 186 345 186 q 541 221 484 186 q 598 316 598 256 l 598 361 l 375 361 l 375 560 l 802 560 l 802 316 q 768 173 802 236 q 679 69 734 109 q 555 8 625 30 q 413 -12 485 -12 q 272 8 341 -12 q 149 68 203 28 q 61 172 94 108 q 28 316 28 237 "},"(":{"x_min":33,"x_max":406.703125,"ha":416,"o":"m 266 1101 l 406 1007 q 226 483 227 777 q 226 480 226 482 q 403 -65 226 187 l 258 -164 q 33 491 33 132 q 266 1101 33 855 "},"`":{"x_min":-92,"x_max":323.078125,"ha":357,"o":"m -92 979 l 166 979 l 323 728 l 109 728 l -92 979 "},"U":{"x_min":61,"x_max":832.140625,"ha":943,"o":"m 61 321 l 61 983 l 265 983 l 265 322 q 302 233 265 269 q 393 190 340 197 q 444 185 419 186 l 499 190 q 590 234 552 198 q 628 322 628 269 l 628 983 l 832 983 l 832 321 q 789 157 832 230 q 678 46 746 84 q 528 -8 610 8 q 446 -16 487 -16 q 364 -8 405 -16 q 213 46 281 9 q 103 156 145 84 q 61 321 61 228 "},"F":{"x_min":56,"x_max":719.140625,"ha":765,"o":"m 56 0 l 56 983 l 719 983 l 719 784 l 260 784 l 260 568 l 662 568 l 662 369 l 260 369 l 260 0 l 56 0 "},"r":{"x_min":35,"x_max":418.1875,"ha":456,"o":"m 35 0 l 35 474 q 73 608 35 550 q 172 698 111 666 q 247 724 208 715 l 249 724 q 317 730 270 730 q 418 718 363 730 l 418 567 q 363 575 390 574 q 293 561 327 575 q 228 477 233 536 l 228 0 l 35 0 "},":":{"x_min":29,"x_max":267.734375,"ha":337,"o":"m 29 129 q 63 215 29 180 q 148 249 98 249 q 233 215 198 249 q 267 129 267 180 q 233 44 267 79 q 148 10 198 10 q 63 44 98 10 q 29 129 29 79 m 63 475 q 29 561 29 511 q 63 644 29 610 q 148 678 98 678 q 233 644 198 678 q 267 561 267 610 q 233 475 267 511 q 148 440 198 440 q 63 475 98 440 "},"x":{"x_min":-46.125,"x_max":657.203125,"ha":657,"o":"m -46 0 l 187 359 q 149 421 176 376 q 74 540 122 466 l -46 720 l 172 720 l 271 555 l 298 487 l 307 487 l 331 555 q 373 625 341 569 l 427 720 l 654 720 l 415 360 l 536 179 q 657 0 622 47 l 427 0 l 335 149 l 307 223 l 297 223 l 265 146 l 172 0 l -46 0 "},"*":{"x_min":-1.359375,"x_max":567,"ha":610,"o":"m -1 711 l 48 886 l 206 820 l 193 984 l 373 984 l 356 821 l 515 883 l 567 707 l 405 677 l 516 548 l 373 439 l 282 589 l 196 439 l 47 547 l 155 675 l -1 711 "},"V":{"x_min":-56.96875,"x_max":851.171875,"ha":851,"o":"m -56 984 l 161 984 l 347 438 l 387 235 l 402 235 l 440 438 l 633 984 l 851 984 l 495 1 l 298 1 l -56 984 "},"h":{"x_min":46,"x_max":622.296875,"ha":733,"o":"m 46 0 l 46 983 l 239 983 l 239 699 q 345 722 290 721 q 370 720 357 722 q 494 688 438 714 q 586 601 550 661 q 622 462 622 542 l 622 0 l 429 0 l 429 465 q 393 528 429 506 q 321 548 361 548 q 314 548 317 548 q 239 527 269 546 l 239 0 l 46 0 "},"0":{"x_min":41,"x_max":748.296875,"ha":852,"o":"m 41 286 l 41 695 q 96 864 41 793 q 229 964 151 934 q 394 994 306 994 q 495 983 446 994 q 591 948 545 972 q 672 890 637 924 q 727 806 707 857 q 748 695 748 755 l 748 286 q 642 65 748 142 q 394 -11 535 -11 q 147 65 254 -11 q 41 286 41 142 m 234 284 q 288 204 238 233 q 394 176 337 176 q 501 204 452 176 q 555 284 550 233 l 555 693 q 518 762 552 734 q 439 798 485 791 q 394 800 417 801 l 349 798 q 270 763 303 791 q 234 693 237 734 l 234 284 "},".":{"x_min":62,"x_max":299.375,"ha":379,"o":"m 62 112 q 96 197 62 162 q 180 231 130 231 q 264 197 230 231 q 299 112 299 162 q 264 26 299 60 q 180 -8 230 -8 q 96 26 130 -8 q 62 112 62 60 "},"@":{"x_min":17.984375,"x_max":1005.421875,"ha":1063,"o":"m 19 477 q 74 694 26 590 q 208 875 123 798 q 412 982 294 952 q 524 996 465 996 q 676 976 596 996 q 845 895 771 952 q 961 759 919 838 q 1005 576 1004 675 q 996 486 1005 532 q 868 242 969 333 q 783 191 833 210 q 687 174 738 174 q 676 174 682 174 q 577 208 619 176 q 475 176 529 176 q 444 178 460 176 q 319 238 372 189 q 235 435 235 314 q 238 486 235 460 q 348 707 256 619 q 499 774 420 774 q 572 760 535 774 q 655 709 614 743 l 686 743 l 795 719 l 720 315 q 850 475 819 369 q 863 562 863 519 q 837 681 863 622 q 649 837 790 800 q 535 852 589 852 q 296 752 397 852 q 175 480 189 644 q 173 434 173 456 q 249 216 173 302 q 454 129 327 129 q 591 148 517 129 l 623 13 q 448 -13 534 -13 q 438 -12 443 -13 q 269 27 348 -11 q 131 126 190 65 q 42 278 73 186 q 18 438 17 353 q 19 477 18 458 m 396 452 q 427 349 396 389 q 498 320 457 319 q 507 320 502 320 q 581 355 555 323 l 624 560 q 528 626 582 625 q 523 626 526 626 q 427 565 466 623 q 396 452 396 518 "},"f":{"x_min":31,"x_max":359.4375,"ha":393,"o":"m 31 0 l 31 731 q 124 926 31 857 q 325 987 206 987 q 359 985 342 987 l 359 799 q 260 781 295 799 q 224 732 224 763 l 224 616 l 351 616 l 351 423 l 224 423 l 224 0 l 31 0 "},";":{"x_min":-13.15625,"x_max":277.125,"ha":349,"o":"m -13 -132 l 64 190 l 277 190 l 160 -132 l -13 -132 m 35 544 q 69 628 35 594 q 155 662 103 662 q 239 628 205 662 q 272 544 272 594 q 239 458 272 493 q 155 424 205 424 q 68 458 102 424 q 35 544 35 493 "},"i":{"x_min":31,"x_max":261.59375,"ha":351,"o":"m 64 812 q 31 895 31 846 q 63 977 31 944 q 144 1010 96 1010 q 229 978 196 1010 q 261 895 261 945 q 229 812 261 845 q 144 779 196 779 q 64 812 97 779 m 52 0 l 244 0 l 244 720 l 52 720 l 52 0 "},"6":{"x_min":33,"x_max":749.296875,"ha":845,"o":"m 33 289 l 33 692 q 139 913 33 834 q 388 991 244 991 q 393 991 390 991 q 728 797 618 991 l 558 722 q 477 799 533 776 q 392 817 434 817 q 366 816 379 817 q 268 776 311 809 q 226 696 226 744 l 226 557 q 378 632 287 619 q 431 636 405 636 q 550 615 493 636 q 690 512 632 585 q 749 344 749 439 l 749 291 q 644 70 749 149 q 393 -8 539 -8 q 388 -8 390 -8 q 141 68 245 -8 q 33 289 34 148 m 226 291 q 277 213 226 241 q 391 184 329 184 q 504 213 453 184 q 556 291 556 241 l 556 341 q 504 420 556 392 q 391 449 453 449 q 277 420 329 449 q 226 341 226 392 l 226 291 "},"A":{"x_min":-19.671875,"x_max":873.546875,"ha":886,"o":"m -19 0 l 324 983 l 520 983 l 873 0 l 659 0 l 573 224 l 280 224 l 198 0 l -19 0 m 331 412 l 520 412 l 458 626 l 430 766 l 415 766 l 387 624 l 331 412 "},"n":{"x_min":47,"x_max":622.296875,"ha":718,"o":"m 47 0 l 47 681 q 307 743 174 743 q 462 718 393 743 q 576 632 530 693 q 622 480 622 571 l 622 0 l 429 0 l 429 479 q 395 551 429 525 q 320 575 362 577 q 240 555 278 572 l 240 0 l 47 0 "},"O":{"x_min":37,"x_max":843.140625,"ha":947,"o":"m 37 306 l 37 675 q 96 857 37 780 q 247 969 156 934 q 436 1003 335 1003 q 440 1003 438 1003 q 634 968 545 1002 q 783 857 723 934 q 843 675 843 780 l 843 306 q 783 126 843 202 q 634 14 723 49 q 441 -20 544 -20 q 247 14 337 -20 q 96 125 156 48 q 37 306 37 202 m 241 307 q 282 228 241 260 q 381 189 323 196 q 439 185 410 185 q 498 189 469 185 q 598 228 557 196 q 639 307 639 260 l 639 674 q 598 755 639 723 q 498 795 557 787 q 443 798 471 798 q 381 794 413 798 q 282 754 323 787 q 241 674 241 721 l 241 307 "},"3":{"x_min":-5.125,"x_max":715.140625,"ha":782,"o":"m -5 198 l 146 308 q 232 222 179 253 q 340 191 286 191 q 487 248 443 191 q 511 310 511 279 q 494 362 511 335 q 365 426 459 420 l 228 426 l 228 599 l 365 599 q 438 627 408 599 q 468 698 468 656 q 431 767 468 741 q 344 793 394 793 q 152 712 219 793 l 31 818 q 168 942 82 897 q 345 991 255 988 q 357 992 351 991 q 519 948 440 992 q 647 809 603 901 q 672 717 670 764 q 672 709 672 713 q 650 618 672 665 q 574 527 626 568 q 679 416 643 479 q 715 292 715 353 q 686 171 715 231 q 608 70 657 112 q 487 3 558 27 q 377 -14 434 -14 q 336 -11 357 -14 q 137 44 222 0 q -5 198 53 89 "},"]":{"x_min":-33,"x_max":266.78125,"ha":366,"o":"m -33 37 l 73 37 l 73 803 l -33 803 l -33 991 l 266 991 l 266 -150 l -33 -150 l -33 37 "},"m":{"x_min":49,"x_max":966.296875,"ha":1064,"o":"m 49 657 q 168 721 97 697 q 302 743 236 743 q 310 743 306 743 q 507 647 456 740 q 697 734 575 734 q 886 669 806 734 q 966 488 966 604 l 966 0 l 773 0 l 773 497 q 755 538 773 522 q 713 558 738 554 q 688 560 701 560 q 663 558 676 560 q 620 538 637 554 q 603 498 603 522 l 603 0 l 410 0 l 410 501 q 378 553 410 533 q 317 569 351 569 q 305 569 311 569 q 242 542 264 566 l 242 0 l 49 0 l 49 657 "},"9":{"x_min":28,"x_max":744.296875,"ha":840,"o":"m 28 637 l 28 690 q 132 912 28 833 q 383 991 237 991 q 389 991 386 991 q 636 913 531 991 q 744 692 742 834 l 744 289 q 637 68 744 148 q 389 -8 532 -9 q 383 -8 386 -8 q 48 185 158 -8 l 218 259 q 299 182 243 205 q 385 165 343 165 q 410 166 398 165 q 508 205 466 173 q 551 286 551 238 l 551 424 q 397 350 488 363 q 343 346 369 346 q 225 367 282 346 q 86 469 144 396 q 28 637 28 542 m 221 640 q 272 562 221 590 q 386 534 323 534 q 499 562 448 534 q 551 640 551 590 l 551 690 q 499 769 551 740 q 386 797 448 797 q 272 769 323 797 q 221 690 221 740 l 221 640 "},"l":{"x_min":36,"x_max":344.296875,"ha":374,"o":"m 36 266 l 36 983 l 229 983 l 229 269 q 258 198 229 226 q 344 171 287 171 l 344 2 q 282 -2 311 -2 q 115 59 178 -2 q 36 266 36 138 "},"8":{"x_min":14,"x_max":744.296875,"ha":818,"o":"m 14 312 q 43 427 14 369 q 136 527 72 484 q 63 612 86 558 q 45 703 45 659 q 45 718 45 711 q 70 812 49 771 q 190 931 109 889 q 369 973 271 973 l 390 973 q 619 902 525 973 q 713 691 713 831 q 689 603 713 649 q 619 532 666 558 q 744 312 743 467 q 642 77 741 162 q 388 -8 542 -8 l 368 -8 q 115 77 215 -8 q 14 312 15 162 m 207 300 q 257 211 207 244 q 368 178 307 178 l 389 178 q 500 211 450 178 q 551 300 551 244 q 505 397 551 366 q 389 429 459 429 l 368 429 q 253 397 299 429 q 207 300 207 366 m 238 700 q 278 627 238 651 q 373 602 318 602 q 474 627 429 602 q 520 700 520 651 q 481 773 520 746 q 391 800 442 800 l 368 800 q 277 773 316 800 q 238 700 238 746 "},"p":{"x_min":32,"x_max":611.34375,"ha":707,"o":"m 32 -263 l 32 681 q 312 735 173 735 q 519 675 437 735 q 611 486 601 616 l 611 237 q 574 108 612 165 q 478 25 536 51 q 352 -6 420 0 q 329 -8 340 -8 q 225 17 274 -8 l 225 -263 l 32 -263 m 225 156 q 301 140 260 140 q 303 140 302 140 q 378 163 343 140 q 418 226 413 187 l 418 503 q 381 568 416 543 q 308 591 348 591 q 304 591 306 591 q 225 576 262 589 l 225 156 "},"4":{"x_min":-7.734375,"x_max":705.765625,"ha":766,"o":"m -7 365 l 466 984 l 639 984 l 639 408 l 705 408 l 705 221 l 639 221 l 639 3 l 446 3 l 446 221 l 85 221 l -7 365 m 229 394 l 450 394 l 454 598 l 476 733 l 468 735 l 425 660 l 229 394 "},"R":{"x_min":60,"x_max":868.328125,"ha":866,"o":"m 60 0 l 60 983 l 447 983 q 699 906 603 983 q 799 668 794 829 q 575 373 799 417 l 868 0 l 616 0 l 336 359 l 264 359 l 264 0 l 60 0 m 264 545 l 446 545 q 595 667 594 545 q 457 777 595 777 q 446 777 452 777 l 264 777 l 264 545 "},"o":{"x_min":29,"x_max":605.296875,"ha":695,"o":"m 29 244 l 29 478 q 114 666 29 599 q 317 735 199 733 q 519 666 434 733 q 605 478 605 599 l 605 244 q 520 56 605 122 q 317 -11 435 -9 q 114 56 199 -9 q 29 244 29 122 m 222 239 q 252 184 222 206 q 317 162 281 162 q 382 184 352 162 q 412 239 412 206 l 412 477 q 382 528 412 509 q 317 547 353 547 q 251 528 280 547 q 222 477 222 509 l 222 239 "},"5":{"x_min":40.734375,"x_max":732.46875,"ha":820,"o":"m 40 192 l 190 292 q 268 216 221 243 q 362 190 316 190 q 442 206 407 190 q 497 250 478 223 q 524 310 516 277 q 525 375 533 343 q 500 435 517 408 q 448 480 482 463 q 369 498 413 498 q 275 486 316 499 q 162 434 234 473 l 46 431 l 46 983 l 664 983 l 664 789 l 239 789 l 239 655 q 410 681 330 687 q 558 642 490 675 q 674 542 630 606 q 728 404 718 477 q 719 254 739 331 q 655 118 700 178 q 533 23 610 59 q 361 -8 456 -12 q 40 192 135 1 "}}}
